<?xml version="1.0" standalone="no"?>
<!DOCTYPE svg PUBLIC "-//W3C//DTD SVG 20010904//EN"
 "http://www.w3.org/TR/2001/REC-SVG-20010904/DTD/svg10.dtd">
<svg version="1.0" xmlns="http://www.w3.org/2000/svg"
 width="180.000000pt" height="180.000000pt" viewBox="0 0 180.000000 180.000000"
 preserveAspectRatio="xMidYMid meet">
<metadata>
Created by potrace 1.14, written by Peter Selinger 2001-2017
</metadata>
<g transform="translate(0.000000,180.000000) scale(0.100000,-0.100000)"
fill="#000000" stroke="none">
<path d="M1156 1592 c-4 -3 -16 -6 -29 -7 -64 -6 -176 -44 -205 -70 -11 -10
-23 -8 -57 11 -74 39 -164 61 -257 62 -75 0 -105 -3 -178 -22 -55 -15 -170
-81 -192 -111 -4 -5 -8 -7 -8 -3 0 4 -19 -14 -42 -40 -24 -26 -46 -48 -50 -50
-5 -2 -8 -10 -8 -17 0 -7 -4 -15 -9 -17 -5 -1 -28 -38 -50 -81 -42 -79 -53
-139 -28 -154 6 -4 54 -8 105 -9 79 -2 94 0 98 14 3 10 10 24 15 32 5 8 15 30
23 48 8 17 20 32 25 32 6 0 11 6 11 12 0 16 90 98 107 98 7 0 13 5 13 10 0 6
3 9 7 8 5 0 15 2 23 5 40 16 90 24 140 22 57 -3 120 -14 120 -22 0 -2 -11 -23
-24 -46 -31 -52 -64 -137 -74 -185 -8 -46 -9 -227 0 -267 11 -49 40 -140 47
-145 6 -5 51 -86 51 -93 0 -2 -6 -4 -12 -5 -7 -1 -31 -5 -54 -10 -22 -5 -63
-7 -89 -6 -51 3 -154 40 -167 58 -4 6 -8 8 -8 4 0 -11 -72 62 -102 102 -27 36
-57 113 -64 165 -3 17 -7 35 -9 42 -2 7 1 15 7 19 15 9 -19 27 -54 28 -15 1
-28 -2 -28 -6 0 -4 -10 -4 -22 1 -25 9 -85 -2 -102 -19 -7 -7 -11 -121 -11
-376 0 -430 -11 -394 126 -394 l87 0 1 137 c1 75 4 139 6 141 2 2 19 -7 37
-21 35 -26 138 -81 138 -73 0 3 12 -1 26 -9 15 -7 33 -11 40 -8 8 3 14 1 14
-4 0 -5 15 -8 33 -8 17 1 42 -2 55 -6 12 -5 22 -5 22 -1 0 4 24 7 54 8 57 1
169 34 219 64 28 18 31 18 61 1 47 -27 145 -59 201 -66 49 -6 105 -9 115 -5 3
1 19 3 35 6 37 5 70 12 70 14 0 1 9 3 19 5 11 2 52 20 91 39 125 62 259 214
291 331 2 6 10 35 18 66 9 30 14 66 11 79 -10 51 -17 53 -252 53 -218 0 -261
-6 -265 -36 -1 -7 -2 -51 -3 -99 -1 -74 1 -88 14 -89 9 -1 60 -1 114 -2 53 0
97 -2 97 -4 0 -12 -81 -78 -121 -98 -49 -26 -133 -44 -176 -39 -41 4 -97 15
-105 20 -4 3 8 35 26 72 59 118 69 165 69 307 0 113 -16 183 -68 287 -32 66
-33 66 -11 73 40 13 51 15 101 18 129 8 240 -59 315 -192 19 -34 40 -68 45
-77 8 -11 31 -15 94 -16 75 -1 86 1 102 21 16 19 17 33 5 76 -1 6 -11 28 -21
50 -10 22 -17 43 -17 48 1 4 -2 7 -8 7 -5 0 -10 5 -10 11 0 22 -76 116 -130
162 -48 40 -170 113 -170 102 0 -2 -17 3 -37 12 -21 8 -69 17 -108 20 -38 2
-78 5 -87 7 -9 2 -19 1 -22 -2z m-199 -497 c3 -11 6 -30 7 -42 2 -13 5 -25 8
-28 6 -6 2 -86 -7 -135 -6 -32 -53 -140 -61 -140 -4 0 -38 61 -39 70 0 3 -3
10 -6 15 -20 33 -33 215 -15 215 5 0 6 3 3 7 -4 3 -2 12 4 20 6 7 9 13 5 13
-9 0 22 60 42 83 15 17 17 16 35 -20 10 -21 21 -47 24 -58z"/>
</g>
</svg>
